<svg width="512" height="512" viewBox="0 0 512 512" fill="none" xmlns="http://www.w3.org/2000/svg">
<g clip-path="url(#clip0_616_2)">
<path d="M448.057 148.669L377.195 77.807L436.247 18.755C442.77 12.232 453.345 12.232 459.867 18.755L507.108 65.996C513.631 72.519 513.631 83.094 507.108 89.616L448.057 148.669Z" fill="#C88F48"/>
<path d="M4.89188 473.715C37.4549 506.278 90.4319 506.278 122.995 473.715L379.445 217.265L308.583 146.403L4.89188 450.095C-1.63212 456.618 -1.62912 467.194 4.89188 473.715Z" fill="#DAE1E6"/>
<path d="M344.015 181.834L308.584 146.403L28.5117 426.474C48.0797 446.042 79.8057 446.042 99.3737 426.474L344.015 181.834Z" fill="#B7C4CC"/>
<path d="M290.587 164.421L361.447 235.282L471.675 125.054L400.814 54.1937L290.587 164.421Z" fill="#A2442B"/>
<path d="M329.953 125.048L400.813 195.908L424.433 172.288L353.573 101.428L329.953 125.048Z" fill="#C1AD8C"/>
<path d="M377.193 77.8132L448.054 148.674L471.674 125.054L400.813 54.1933L377.193 77.8132Z" fill="#C1AD8C"/>
<path d="M365.385 254.962L270.902 160.479C264.379 153.956 264.379 143.381 270.902 136.859C277.425 130.336 288 130.336 294.522 136.859L389.005 231.342C395.528 237.865 395.528 248.44 389.005 254.962C382.482 261.484 371.907 261.484 365.385 254.962Z" fill="#C88F48"/>
</g>
<defs>
<clipPath id="clip0_616_2">
<rect width="512" height="512" fill="white"/>
</clipPath>
</defs>
</svg>
