<svg width="513" height="513" viewBox="0 0 513 513" fill="none" xmlns="http://www.w3.org/2000/svg">
<g clip-path="url(#clip0_608_2)">
<path d="M511.098 221.888C509.318 216.657 505.089 212.65 499.857 211.203L470.92 202.744L490.397 178.147C493.846 173.806 494.848 168.13 493.291 162.899C491.62 157.557 487.503 153.439 482.272 151.88C446.321 140.527 403.471 131.067 357.615 145.87C353.497 147.317 349.268 148.875 345.149 150.657C345.594 146.094 345.818 141.753 345.818 137.301C345.818 89.22 323.447 51.378 301.631 20.659C298.404 16.207 292.951 13.425 287.719 13.648C282.265 13.758 277.147 16.541 274.14 21.105L255.998 47.038L239.414 21.105C236.409 16.542 231.289 13.759 225.835 13.648C220.381 13.425 215.15 16.208 211.923 20.659C190.108 51.378 167.737 89.22 167.737 137.301C167.737 141.642 167.96 146.094 168.292 150.434C164.174 148.765 159.945 147.206 155.715 145.871C109.304 130.957 64.8961 141.196 31.2831 151.881C26.0521 153.55 22.0441 157.669 20.3761 162.9C18.8171 168.131 19.9311 173.919 23.2701 178.148L42.6361 202.745L12.1401 211.204C6.90915 212.763 2.68015 216.77 0.900147 221.889C-0.882853 227.12 0.00814652 232.908 3.34915 237.36C26.0541 267.522 55.3251 300.467 101.07 315.492C104.741 316.605 108.526 317.607 112.311 318.497C110.084 321.168 107.969 323.839 106.077 326.622C77.5831 365.8 73.4651 411.544 73.1321 446.938C73.1321 452.392 75.6921 457.623 80.2541 460.739C84.7061 463.967 90.4941 464.635 95.6141 462.742L124.996 451.946L123.772 483.221C123.549 488.676 125.999 491.791 130.45 495.02C134.791 498.359 140.578 499.248 145.809 497.469C179.422 486.228 221.603 470.423 250.097 431.246C252.434 428.018 253.882 424.791 255.996 421.34C258.11 424.79 261.004 428.018 263.341 431.246C291.722 470.424 334.017 486.228 367.63 497.469C369.41 498.137 371.19 498.359 372.972 498.359C376.535 498.359 379.984 497.246 382.988 495.02C386.551 492.348 388.998 489.678 389.556 485.671C389.667 484.781 389.667 483.89 389.667 483.222L388.331 451.947L417.825 462.743C422.945 464.635 428.732 463.967 433.183 460.74C437.636 457.624 440.307 452.393 440.307 446.939C439.862 411.546 435.854 365.801 407.361 326.624C405.356 323.841 403.243 321.169 401.129 318.499C405.025 317.609 408.92 316.496 412.704 315.271C458.67 300.357 487.497 265.743 508.755 237.25C511.99 232.796 512.88 227.121 511.098 221.888Z" fill="#9E3030"/>
<path d="M508.761 237.248C487.504 265.741 458.676 300.355 412.71 315.269C408.925 316.493 405.029 317.606 401.135 318.497C403.249 321.168 405.363 323.839 407.367 326.622C435.859 365.8 439.867 411.544 440.313 446.937C440.313 452.391 437.642 457.622 433.189 460.738C428.738 463.966 422.951 464.633 417.831 462.741L388.337 451.945L389.673 483.22C389.673 483.889 389.673 484.778 389.562 485.669C389.006 489.676 386.557 492.347 382.994 495.018C379.99 497.244 376.541 498.357 372.978 498.357C371.197 498.357 369.415 498.134 367.636 497.467C334.023 486.226 291.728 470.421 263.347 431.244C261.01 428.016 258.116 424.789 256.002 421.338V47.038L274.144 21.105C277.149 16.542 282.269 13.759 287.723 13.648C292.955 13.425 298.409 16.208 301.635 20.659C323.451 51.378 345.822 89.22 345.822 137.301C345.822 141.753 345.599 146.094 345.153 150.657C349.271 148.876 353.5 147.318 357.619 145.87C403.474 131.067 446.325 140.528 482.276 151.88C487.507 153.438 491.623 157.556 493.295 162.899C494.852 168.13 493.85 173.806 490.401 178.147L470.924 202.744L499.861 211.203C505.093 212.649 509.323 216.657 511.102 221.888C512.88 227.121 511.99 232.796 508.761 237.248Z" fill="#772020"/>
<path d="M256 326.51C225.317 326.51 200.35 301.543 200.35 270.86C200.35 240.177 225.317 215.21 256 215.21C286.683 215.21 311.65 240.177 311.65 270.86C311.65 301.543 286.683 326.51 256 326.51Z" fill="#E79458"/>
<path d="M311.65 270.86C311.65 240.177 286.683 215.21 256 215.21V326.51C286.683 326.51 311.65 301.545 311.65 270.86Z" fill="#C17740"/>
<path d="M256 248.6C243.729 248.6 233.74 258.584 233.74 270.86C233.74 283.136 243.729 293.12 256 293.12C268.271 293.12 278.26 283.136 278.26 270.86C278.26 258.584 268.271 248.6 256 248.6Z" fill="#EFC437"/>
<path d="M278.26 270.86C278.26 258.584 268.271 248.6 256 248.6V293.12C268.271 293.12 278.26 283.138 278.26 270.86Z" fill="#D7A03C"/>
</g>
<defs>
<clipPath id="clip0_608_2">
<rect width="512.002" height="512.002" fill="white"/>
</clipPath>
</defs>
</svg>
